<svg class="icon" style="width: 1.529296875em;height: 1em;vertical-align: middle;fill: currentColor;overflow: hidden;" viewBox="0 0 1566 1024" version="1.1" xmlns="http://www.w3.org/2000/svg" p-id="1021"><path d="M1234.823529 361.411765c-24.094118 0-48.188235 6.023529-72.282353 12.047059L1030.023529 0h-180.705882v60.235294h138.541177l48.188235 126.494118-222.870588 427.670588-210.82353-361.411765h84.329412v-60.235294h-240.941177v60.235294h84.329412L451.764706 385.505882C415.623529 367.435294 373.458824 361.411765 337.317647 361.411765c-168.658824 0-301.176471 132.517647-301.176471 301.17647s132.517647 301.176471 301.176471 301.176471c150.588235 0 277.082353-114.447059 295.152941-259.011765h132.517647c12.047059 18.070588 30.117647 30.117647 48.188236 30.117647 18.070588 0 42.164706-12.047059 48.188235-30.117647 6.023529-6.023529 6.023529-18.070588 6.023529-30.117647s-6.023529-18.070588-6.023529-30.117647l198.77647-379.482353 48.188236 132.517647c-102.4 48.188235-168.658824 150.588235-168.658824 271.058824 0 168.658824 132.517647 301.176471 301.176471 301.17647s301.176471-132.517647 301.17647-301.17647S1403.482353 361.411765 1234.823529 361.411765zM560.188235 313.223529l192.752941 331.294118h-126.494117c-6.023529-96.376471-54.211765-174.682353-126.494118-228.894118l60.235294-102.4z m6.02353 331.294118H361.411765l102.4-174.682353c60.235294 36.141176 96.376471 102.4 102.4 174.682353zM331.294118 903.529412c-132.517647 0-240.941176-108.423529-240.941177-240.941177s108.423529-240.941176 240.941177-240.941176c30.117647 0 60.235294 6.023529 84.329411 18.070588l-156.611764 265.035294h307.2c-18.070588 114.447059-120.470588 198.776471-234.917647 198.776471z m903.529411 0c-132.517647 0-240.941176-108.423529-240.941176-240.941177 0-90.352941 54.211765-174.682353 132.517647-210.823529l84.329412 240.941176 54.211764-18.070588-84.329411-240.941176c18.070588-6.023529 36.141176-6.023529 54.211764-6.02353 132.517647 0 240.941176 108.423529 240.941177 240.941177s-102.4 234.917647-240.941177 234.917647z"  p-id="1022"></path></svg>